<svg width="283" height="91" viewBox="0 0 283 91" fill="none" xmlns="http://www.w3.org/2000/svg">
<path d="M28.2695 38.3945C28.2695 36.5898 27.625 35.1836 26.3359 34.1758C25.0703 33.168 22.832 32.125 19.6211 31.0469C16.4102 29.9688 13.7852 28.9258 11.7461 27.918C5.11328 24.6602 1.79688 20.1836 1.79688 14.4883C1.79688 11.6523 2.61719 9.15625 4.25781 7C5.92188 4.82031 8.26562 3.13281 11.2891 1.9375C14.3125 0.71875 17.7109 0.109375 21.4844 0.109375C25.1641 0.109375 28.457 0.765625 31.3633 2.07812C34.293 3.39062 36.5664 5.26562 38.1836 7.70312C39.8008 10.1172 40.6094 12.8828 40.6094 16H28.3047C28.3047 13.9141 27.6602 12.2969 26.3711 11.1484C25.1055 10 23.3828 9.42578 21.2031 9.42578C19 9.42578 17.2539 9.91797 15.9648 10.9023C14.6992 11.8633 14.0664 13.0938 14.0664 14.5938C14.0664 15.9062 14.7695 17.1016 16.1758 18.1797C17.582 19.2344 20.0547 20.3359 23.5938 21.4844C27.1328 22.6094 30.0391 23.8281 32.3125 25.1406C37.8438 28.3281 40.6094 32.7227 40.6094 38.3242C40.6094 42.8008 38.9219 46.3164 35.5469 48.8711C32.1719 51.4258 27.543 52.7031 21.6602 52.7031C17.5117 52.7031 13.75 51.9648 10.375 50.4883C7.02344 48.9883 4.49219 46.9492 2.78125 44.3711C1.09375 41.7695 0.25 38.7812 0.25 35.4062H12.625C12.625 38.1484 13.3281 40.1758 14.7344 41.4883C16.1641 42.7773 18.4727 43.4219 21.6602 43.4219C23.6992 43.4219 25.3047 42.9883 26.4766 42.1211C27.6719 41.2305 28.2695 39.9883 28.2695 38.3945Z" fill="#1D1E24"/>
<path d="M91.9445 0.8125L103.37 36.4258L114.761 0.8125H131.003V52H118.628V40.0469L119.823 15.5781L107.448 52H99.2922L86.882 15.543L88.0773 40.0469V52H75.7375V0.8125H91.9445Z" fill="#1D1E24"/>
<path d="M197.385 42.4375H180.475L177.522 52H164.338L183.112 0.8125H194.713L213.627 52H200.373L197.385 42.4375ZM183.428 32.9102H194.432L188.913 15.1562L183.428 32.9102Z" fill="#1D1E24"/>
<path d="M282.154 10.3398H266.791V52H254.451V10.3398H239.369V0.8125H282.154V10.3398Z" fill="#1D1E24"/>
<path d="M42.7783 86.6426C42.7783 86.1445 42.6025 85.7637 42.251 85.5C41.8994 85.2305 41.2666 84.9492 40.3525 84.6562C39.4385 84.3574 38.7148 84.0645 38.1816 83.7773C36.7285 82.9922 36.002 81.9346 36.002 80.6045C36.002 79.9131 36.1953 79.2979 36.582 78.7588C36.9746 78.2139 37.5342 77.7891 38.2607 77.4844C38.9932 77.1797 39.8135 77.0273 40.7217 77.0273C41.6357 77.0273 42.4502 77.1943 43.165 77.5283C43.8799 77.8564 44.4336 78.3223 44.8262 78.9258C45.2246 79.5293 45.4238 80.2148 45.4238 80.9824H42.7871C42.7871 80.3965 42.6025 79.9424 42.2334 79.6201C41.8643 79.292 41.3457 79.1279 40.6777 79.1279C40.0332 79.1279 39.5322 79.2656 39.1748 79.541C38.8174 79.8105 38.6387 80.168 38.6387 80.6133C38.6387 81.0293 38.8467 81.3779 39.2627 81.6592C39.6846 81.9404 40.3027 82.2041 41.1172 82.4502C42.6172 82.9014 43.71 83.4609 44.3955 84.1289C45.0811 84.7969 45.4238 85.6289 45.4238 86.625C45.4238 87.7324 45.0049 88.6025 44.167 89.2354C43.3291 89.8623 42.2012 90.1758 40.7832 90.1758C39.7988 90.1758 38.9023 89.9971 38.0938 89.6396C37.2852 89.2764 36.667 88.7812 36.2393 88.1543C35.8174 87.5273 35.6064 86.8008 35.6064 85.9746H38.252C38.252 87.3867 39.0957 88.0928 40.7832 88.0928C41.4102 88.0928 41.8994 87.9668 42.251 87.7148C42.6025 87.457 42.7783 87.0996 42.7783 86.6426Z" fill="#1D1E24"/>
<path d="M52.0543 85.1572C52.0543 84.2139 52.2359 83.373 52.5992 82.6348C52.9625 81.8965 53.484 81.3252 54.1637 80.9209C54.8492 80.5166 55.6432 80.3145 56.5455 80.3145C57.8287 80.3145 58.8746 80.707 59.6832 81.4922C60.4977 82.2773 60.9518 83.3438 61.0455 84.6914L61.0631 85.3418C61.0631 86.8008 60.6559 87.9727 59.8414 88.8574C59.027 89.7363 57.9342 90.1758 56.5631 90.1758C55.192 90.1758 54.0963 89.7363 53.276 88.8574C52.4615 87.9785 52.0543 86.7832 52.0543 85.2715V85.1572ZM54.5943 85.3418C54.5943 86.2441 54.7643 86.9355 55.1041 87.416C55.4439 87.8906 55.9303 88.1279 56.5631 88.1279C57.1783 88.1279 57.6588 87.8936 58.0045 87.4248C58.3502 86.9502 58.523 86.1943 58.523 85.1572C58.523 84.2725 58.3502 83.5869 58.0045 83.1006C57.6588 82.6143 57.1725 82.3711 56.5455 82.3711C55.9244 82.3711 55.4439 82.6143 55.1041 83.1006C54.7643 83.5811 54.5943 84.3281 54.5943 85.3418Z" fill="#1D1E24"/>
<path d="M71.9826 88.1279C72.4514 88.1279 72.8322 87.999 73.1252 87.7412C73.4182 87.4834 73.5705 87.1406 73.5822 86.7129H75.9641C75.9582 87.3574 75.7824 87.9492 75.4367 88.4883C75.091 89.0215 74.6164 89.4375 74.0129 89.7363C73.4152 90.0293 72.7531 90.1758 72.0266 90.1758C70.6672 90.1758 69.5949 89.7451 68.8098 88.8838C68.0246 88.0166 67.632 86.8213 67.632 85.2979V85.1309C67.632 83.666 68.0217 82.4971 68.801 81.624C69.5803 80.751 70.6496 80.3145 72.009 80.3145C73.1984 80.3145 74.1506 80.6543 74.8654 81.334C75.5861 82.0078 75.9523 82.9072 75.9641 84.0322H73.5822C73.5705 83.54 73.4182 83.1416 73.1252 82.8369C72.8322 82.5264 72.4455 82.3711 71.965 82.3711C71.3732 82.3711 70.925 82.5879 70.6203 83.0215C70.3215 83.4492 70.1721 84.1465 70.1721 85.1133V85.377C70.1721 86.3555 70.3215 87.0586 70.6203 87.4863C70.9191 87.9141 71.3732 88.1279 71.9826 88.1279Z" fill="#1D1E24"/>
<path d="M85.4949 90H82.9461V80.4902H85.4949V90ZM82.7967 78.0293C82.7967 77.6484 82.9227 77.335 83.1746 77.0889C83.4324 76.8428 83.7811 76.7197 84.2205 76.7197C84.6541 76.7197 84.9998 76.8428 85.2576 77.0889C85.5154 77.335 85.6443 77.6484 85.6443 78.0293C85.6443 78.416 85.5125 78.7324 85.2488 78.9785C84.991 79.2246 84.6482 79.3477 84.2205 79.3477C83.7928 79.3477 83.4471 79.2246 83.1834 78.9785C82.9256 78.7324 82.7967 78.416 82.7967 78.0293Z" fill="#1D1E24"/>
<path d="M98.5062 90C98.3891 89.7715 98.3041 89.4873 98.2514 89.1475C97.6361 89.833 96.8363 90.1758 95.852 90.1758C94.9203 90.1758 94.1469 89.9062 93.5316 89.3672C92.9223 88.8281 92.6176 88.1484 92.6176 87.3281C92.6176 86.3203 92.9896 85.5469 93.7338 85.0078C94.4838 84.4688 95.5648 84.1963 96.977 84.1904H98.1459V83.6455C98.1459 83.2061 98.0316 82.8545 97.8031 82.5908C97.5805 82.3271 97.226 82.1953 96.7396 82.1953C96.3119 82.1953 95.975 82.2979 95.7289 82.5029C95.4887 82.708 95.3686 82.9893 95.3686 83.3467H92.8285C92.8285 82.7959 92.9984 82.2861 93.3383 81.8174C93.6781 81.3486 94.1586 80.9824 94.7797 80.7188C95.4008 80.4492 96.098 80.3145 96.8715 80.3145C98.0434 80.3145 98.9721 80.6104 99.6576 81.2021C100.349 81.7881 100.695 82.6143 100.695 83.6807V87.8027C100.701 88.7051 100.827 89.3877 101.073 89.8506V90H98.5062ZM96.4057 88.2334C96.7807 88.2334 97.1264 88.1514 97.4428 87.9873C97.7592 87.8174 97.9936 87.5918 98.1459 87.3105V85.6758H97.1967C95.9252 85.6758 95.2484 86.1152 95.1664 86.9941L95.1576 87.1436C95.1576 87.46 95.2689 87.7207 95.4916 87.9258C95.7143 88.1309 96.0189 88.2334 96.4057 88.2334Z" fill="#1D1E24"/>
<path d="M110.727 90H108.178V76.5H110.727V90Z" fill="#1D1E24"/>
<path d="M131.722 77.2031L135.009 86.4844L138.279 77.2031H141.741V90H139.096V86.502L139.36 80.4639L135.905 90H134.095L130.65 80.4727L130.913 86.502V90H128.277V77.2031H131.722Z" fill="#1D1E24"/>
<path d="M154.788 90C154.671 89.7715 154.586 89.4873 154.533 89.1475C153.918 89.833 153.118 90.1758 152.134 90.1758C151.202 90.1758 150.429 89.9062 149.813 89.3672C149.204 88.8281 148.899 88.1484 148.899 87.3281C148.899 86.3203 149.271 85.5469 150.015 85.0078C150.765 84.4688 151.846 84.1963 153.259 84.1904H154.428V83.6455C154.428 83.2061 154.313 82.8545 154.085 82.5908C153.862 82.3271 153.508 82.1953 153.021 82.1953C152.594 82.1953 152.257 82.2979 152.011 82.5029C151.77 82.708 151.65 82.9893 151.65 83.3467H149.11C149.11 82.7959 149.28 82.2861 149.62 81.8174C149.96 81.3486 150.44 80.9824 151.061 80.7188C151.682 80.4492 152.38 80.3145 153.153 80.3145C154.325 80.3145 155.254 80.6104 155.939 81.2021C156.631 81.7881 156.976 82.6143 156.976 83.6807V87.8027C156.982 88.7051 157.108 89.3877 157.354 89.8506V90H154.788ZM152.687 88.2334C153.062 88.2334 153.408 88.1514 153.724 87.9873C154.041 87.8174 154.275 87.5918 154.428 87.3105V85.6758H153.478C152.207 85.6758 151.53 86.1152 151.448 86.9941L151.439 87.1436C151.439 87.46 151.551 87.7207 151.773 87.9258C151.996 88.1309 152.301 88.2334 152.687 88.2334Z" fill="#1D1E24"/>
<path d="M167.369 78.1523V80.4902H168.995V82.3535H167.369V87.0996C167.369 87.4512 167.436 87.7031 167.571 87.8555C167.705 88.0078 167.963 88.084 168.344 88.084C168.625 88.084 168.874 88.0635 169.091 88.0225V89.9473C168.593 90.0996 168.08 90.1758 167.553 90.1758C165.772 90.1758 164.864 89.2764 164.829 87.4775V82.3535H163.44V80.4902H164.829V78.1523H167.369Z" fill="#1D1E24"/>
<path d="M180.187 90.1758C178.792 90.1758 177.655 89.748 176.776 88.8926C175.903 88.0371 175.467 86.8975 175.467 85.4736V85.2275C175.467 84.2725 175.651 83.4199 176.021 82.6699C176.39 81.9141 176.911 81.334 177.585 80.9297C178.265 80.5195 179.038 80.3145 179.905 80.3145C181.206 80.3145 182.229 80.7246 182.973 81.5449C183.723 82.3652 184.098 83.5283 184.098 85.0342V86.0713H178.042C178.124 86.6924 178.37 87.1904 178.78 87.5654C179.196 87.9404 179.721 88.1279 180.354 88.1279C181.332 88.1279 182.097 87.7734 182.647 87.0645L183.896 88.4619C183.515 89.001 182.999 89.4229 182.349 89.7275C181.698 90.0264 180.978 90.1758 180.187 90.1758ZM179.896 82.3711C179.393 82.3711 178.982 82.541 178.666 82.8809C178.355 83.2207 178.156 83.707 178.068 84.3398H181.602V84.1377C181.59 83.5752 181.438 83.1416 181.145 82.8369C180.852 82.5264 180.436 82.3711 179.896 82.3711Z" fill="#1D1E24"/>
<path d="M196.292 82.8721C195.946 82.8252 195.641 82.8018 195.378 82.8018C194.417 82.8018 193.787 83.127 193.488 83.7773V90H190.948V80.4902H193.347L193.418 81.624C193.927 80.751 194.633 80.3145 195.536 80.3145C195.817 80.3145 196.081 80.3525 196.327 80.4287L196.292 82.8721Z" fill="#1D1E24"/>
<path d="M205.603 90H203.054V80.4902H205.603V90ZM202.904 78.0293C202.904 77.6484 203.03 77.335 203.282 77.0889C203.54 76.8428 203.889 76.7197 204.328 76.7197C204.762 76.7197 205.108 76.8428 205.365 77.0889C205.623 77.335 205.752 77.6484 205.752 78.0293C205.752 78.416 205.62 78.7324 205.357 78.9785C205.099 79.2246 204.756 79.3477 204.328 79.3477C203.901 79.3477 203.555 79.2246 203.291 78.9785C203.033 78.7324 202.904 78.416 202.904 78.0293Z" fill="#1D1E24"/>
<path d="M218.614 90C218.497 89.7715 218.412 89.4873 218.359 89.1475C217.744 89.833 216.944 90.1758 215.96 90.1758C215.028 90.1758 214.255 89.9062 213.639 89.3672C213.03 88.8281 212.725 88.1484 212.725 87.3281C212.725 86.3203 213.097 85.5469 213.842 85.0078C214.592 84.4688 215.673 84.1963 217.085 84.1904H218.254V83.6455C218.254 83.2061 218.139 82.8545 217.911 82.5908C217.688 82.3271 217.334 82.1953 216.847 82.1953C216.42 82.1953 216.083 82.2979 215.837 82.5029C215.596 82.708 215.476 82.9893 215.476 83.3467H212.936C212.936 82.7959 213.106 82.2861 213.446 81.8174C213.786 81.3486 214.266 80.9824 214.887 80.7188C215.509 80.4492 216.206 80.3145 216.979 80.3145C218.151 80.3145 219.08 80.6104 219.765 81.2021C220.457 81.7881 220.803 82.6143 220.803 83.6807V87.8027C220.808 88.7051 220.934 89.3877 221.18 89.8506V90H218.614ZM216.513 88.2334C216.888 88.2334 217.234 88.1514 217.551 87.9873C217.867 87.8174 218.101 87.5918 218.254 87.3105V85.6758H217.304C216.033 85.6758 215.356 86.1152 215.274 86.9941L215.265 87.1436C215.265 87.46 215.377 87.7207 215.599 87.9258C215.822 88.1309 216.127 88.2334 216.513 88.2334Z" fill="#1D1E24"/>
<path d="M230.834 90H228.286V76.5H230.834V90Z" fill="#1D1E24"/>
<path d="M243.485 87.3721C243.485 87.0615 243.33 86.8184 243.02 86.6426C242.715 86.4609 242.223 86.2998 241.543 86.1592C239.281 85.6846 238.15 84.7236 238.15 83.2764C238.15 82.4326 238.499 81.7295 239.196 81.167C239.899 80.5986 240.816 80.3145 241.947 80.3145C243.154 80.3145 244.118 80.5986 244.839 81.167C245.565 81.7354 245.929 82.4736 245.929 83.3818H243.389C243.389 83.0186 243.271 82.7197 243.037 82.4854C242.803 82.2451 242.437 82.125 241.938 82.125C241.511 82.125 241.18 82.2217 240.945 82.415C240.711 82.6084 240.594 82.8545 240.594 83.1533C240.594 83.4346 240.726 83.6631 240.989 83.8389C241.259 84.0088 241.71 84.1582 242.343 84.2871C242.976 84.4102 243.509 84.5508 243.942 84.709C245.284 85.2012 245.955 86.0537 245.955 87.2666C245.955 88.1338 245.583 88.8369 244.839 89.376C244.095 89.9092 243.134 90.1758 241.956 90.1758C241.159 90.1758 240.45 90.0352 239.829 89.7539C239.214 89.4668 238.73 89.0771 238.379 88.585C238.027 88.0869 237.852 87.5508 237.852 86.9766H240.26C240.283 87.4277 240.45 87.7734 240.761 88.0137C241.071 88.2539 241.487 88.374 242.009 88.374C242.495 88.374 242.861 88.2832 243.107 88.1016C243.359 87.9141 243.485 87.6709 243.485 87.3721Z" fill="#1D1E24"/>
</svg>
