<svg width="283" height="53" viewBox="0 0 283 53" fill="none" xmlns="http://www.w3.org/2000/svg">
<path d="M28.2695 38.3945C28.2695 36.5898 27.625 35.1836 26.3359 34.1758C25.0703 33.168 22.832 32.125 19.6211 31.0469C16.4102 29.9688 13.7852 28.9258 11.7461 27.918C5.11328 24.6602 1.79688 20.1836 1.79688 14.4883C1.79688 11.6523 2.61719 9.15625 4.25781 7C5.92188 4.82031 8.26562 3.13281 11.2891 1.9375C14.3125 0.71875 17.7109 0.109375 21.4844 0.109375C25.1641 0.109375 28.457 0.765625 31.3633 2.07812C34.293 3.39062 36.5664 5.26563 38.1836 7.70312C39.8008 10.1172 40.6094 12.8828 40.6094 16H28.3047C28.3047 13.9141 27.6602 12.2969 26.3711 11.1484C25.1055 10 23.3828 9.42578 21.2031 9.42578C19 9.42578 17.2539 9.91797 15.9648 10.9023C14.6992 11.8633 14.0664 13.0937 14.0664 14.5938C14.0664 15.9062 14.7695 17.1016 16.1758 18.1797C17.582 19.2344 20.0547 20.3359 23.5938 21.4844C27.1328 22.6094 30.0391 23.8281 32.3125 25.1406C37.8438 28.3281 40.6094 32.7227 40.6094 38.3242C40.6094 42.8008 38.9219 46.3164 35.5469 48.8711C32.1719 51.4258 27.543 52.7031 21.6602 52.7031C17.5117 52.7031 13.75 51.9648 10.375 50.4883C7.02344 48.9883 4.49219 46.9492 2.78125 44.3711C1.09375 41.7695 0.25 38.7812 0.25 35.4062H12.625C12.625 38.1484 13.3281 40.1758 14.7344 41.4883C16.1641 42.7773 18.4727 43.4219 21.6602 43.4219C23.6992 43.4219 25.3047 42.9883 26.4766 42.1211C27.6719 41.2305 28.2695 39.9883 28.2695 38.3945ZM91.9445 0.8125L103.37 36.4258L114.761 0.8125H131.003V52H118.628V40.0469L119.823 15.5781L107.448 52H99.2922L86.882 15.543L88.0773 40.0469V52H75.7375V0.8125H91.9445ZM197.385 42.4375H180.475L177.522 52H164.338L183.112 0.8125H194.713L213.627 52H200.373L197.385 42.4375ZM183.428 32.9102H194.432L188.913 15.1562L183.428 32.9102ZM282.154 10.3398H266.791V52H254.451V10.3398H239.369V0.8125H282.154V10.3398Z" fill="#1D1E24"/>
</svg>
